<svg width="23" height="22" viewBox="0 0 23 22" fill="none" xmlns="http://www.w3.org/2000/svg">
<path d="M15.5 11C15.5 11.532 15.465 12.488 15.413 13.605C15.273 16.623 15.203 18.131 14.28 18.78C14.1016 18.9053 13.9063 19.0047 13.7 19.075C12.733 19.405 11.598 18.747 9.5 17.372M7.016 16.042C6.768 16 6.512 16 6 16C4.626 16 3.94 16 3.34 15.723C2.75888 15.4392 2.27739 14.9859 1.959 14.423C1.645 13.841 1.609 13.237 1.535 12.028C1.52367 11.848 1.515 11.672 1.509 11.5M1.959 7.577C2.27739 7.01407 2.75888 6.56082 3.34 6.277C3.94 6 4.626 6 6 6C6.512 6 6.768 6 7.016 5.958C7.26129 5.91646 7.50046 5.84458 7.728 5.744C7.958 5.643 8.172 5.502 8.599 5.22L8.819 5.076C11.36 3.399 12.632 2.56 13.7 2.925C13.905 2.995 14.103 3.095 14.28 3.22C15.115 3.807 15.252 5.099 15.374 7.577M20 17C20 17 21.5 15.2 21.5 11C21.5 8.567 20.997 6.939 20.573 6M18 14C18 14 18.5 13.1 18.5 11C18.5 10.138 18.416 9.478 18.317 9M22 1L2 21" stroke="#5D5D5D" stroke-width="1.5" stroke-linecap="round"/>
</svg>
