<svg width="23" height="18" viewBox="0 0 23 18" fill="none" xmlns="http://www.w3.org/2000/svg">
<path d="M20 3C20 3 21.5 4.8 21.5 9C21.5 13.2 20 15 20 15M18 6C18 6 18.5 6.9 18.5 9C18.5 11.1 18 12 18 12M1.959 5.577C2.27739 5.01407 2.75888 4.56083 3.34 4.277C3.94 4 4.626 4 6 4C6.512 4 6.768 4 7.016 3.958C7.26129 3.91647 7.50046 3.84458 7.728 3.744C7.958 3.643 8.172 3.502 8.599 3.22L8.819 3.076C11.36 1.399 12.632 0.56 13.7 0.925C13.905 0.995 14.103 1.095 14.28 1.22C15.203 1.868 15.273 3.377 15.413 6.394C15.4587 7.26203 15.4877 8.13086 15.5 9C15.5 9.532 15.465 10.488 15.413 11.605C15.273 14.623 15.203 16.131 14.28 16.78C14.1016 16.9053 13.9063 17.0047 13.7 17.075C12.633 17.439 11.361 16.601 8.818 14.924L8.6 14.78C8.173 14.498 7.96 14.357 7.729 14.255C7.50142 14.1548 7.26225 14.0832 7.017 14.042C6.768 14 6.512 14 6 14C4.626 14 3.94 14 3.34 13.723C2.75888 13.4392 2.27739 12.9859 1.959 12.423C1.645 11.841 1.609 11.237 1.535 10.028C1.52367 9.848 1.515 9.672 1.509 9.5" stroke="#5D5D5D" stroke-width="1.5" stroke-linecap="round"/>
</svg>
